Coordinates
version=1
nRows=60
nColumns=12
inDegrees=yes

Units are S.I. units (second, meters, Newtons, ...)
Angles are in degrees

endheader
time	SC_y	SC_z	SC_x	AC_y	AC_z	AC_x	GH_y	GH_z	GH_yy	EL_x	PS_y
       0.0              -18.11          20.34          8.284          46.64         -12.01           2.83          170.5          76.51           47.1          87.58          145.8
  0.009695              -18.11          20.34          8.288          46.63         -12.01          2.829          170.4           76.5          47.09          87.59          145.8
   0.01939              -18.12          20.34          8.291          46.63         -12.01          2.827          170.4          76.49          47.07          87.59          145.8
   0.02908              -18.12          20.34          8.295          46.63         -12.01          2.826          170.4          76.48          47.06           87.6          145.8
   0.03878              -18.13          20.35          8.299          46.63         -12.01          2.824          170.4          76.47          47.04           87.6          145.8
   0.04847              -18.13          20.35          8.303          46.63         -12.01          2.823          170.4          76.46          47.03          87.61          145.8
   0.05817              -18.14          20.35          8.307          46.63         -12.01          2.821          170.4          76.45          47.01          87.61          145.8
   0.06786              -18.15          20.35          8.312          46.63         -12.02           2.82          170.3          76.43          46.99          87.62          145.8
   0.07756              -18.15          20.36          8.317          46.62         -12.02          2.818          170.3          76.42          46.97          87.62          145.8
   0.08725              -18.16          20.36          8.322          46.62         -12.02          2.816          170.3           76.4          46.95          87.63          145.8
   0.09695              -18.17          20.36          8.328          46.62         -12.02          2.814          170.3          76.39          46.93          87.64          145.8
    0.1066              -18.18          20.37          8.334          46.62         -12.02          2.811          170.2          76.37           46.9          87.64          145.8
    0.1163              -18.19          20.37          8.341          46.61         -12.03          2.809          170.2          76.35          46.88          87.65          145.8
     0.126               -18.2          20.38          8.348          46.61         -12.03          2.806          170.2          76.33          46.85          87.66          145.8
    0.1357              -18.21          20.38          8.356          46.61         -12.03          2.803          170.1          76.31          46.82          87.67          145.8
    0.1454              -18.22          20.39          8.365          46.61         -12.03            2.8          170.1          76.28          46.78          87.68          145.8
    0.1551              -18.24          20.39          8.374           46.6         -12.04          2.797          170.0          76.25          46.75          87.69          145.8
    0.1648              -18.25           20.4          8.384           46.6         -12.04          2.793          170.0          76.23          46.71           87.7          145.8
    0.1745              -18.27          20.41          8.395          46.59         -12.05          2.789          169.9          76.19          46.66          87.71          145.9
    0.1842              -18.28          20.41          8.407          46.59         -12.05          2.784          169.9          76.16          46.62          87.73          145.9
    0.1939               -18.3          20.42           8.42          46.58         -12.05           2.78          169.8          76.12          46.56          87.74          145.9
    0.2036              -18.32          20.43          8.435          46.58         -12.06          2.774          169.8          76.08          46.51          87.76          145.9
    0.2133              -18.35          20.44          8.451          46.57         -12.06          2.768          169.7          76.03          46.44          87.78          145.9
     0.223              -18.37          20.45          8.469          46.57         -12.07          2.762          169.6          75.98          46.37           87.8          145.9
    0.2327               -18.4          20.46          8.489          46.56         -12.08          2.754          169.5          75.93           46.3          87.82          145.9
    0.2424              -18.43          20.48          8.511          46.55         -12.09          2.746          169.4          75.86          46.21          87.85          145.9
    0.2521              -18.47          20.49          8.536          46.54         -12.09          2.737          169.3          75.79          46.11          87.88          145.9
    0.2618              -18.51          20.51          8.564          46.53          -12.1          2.727          169.2          75.71           46.0          87.91          145.9
    0.2715              -18.55          20.53          8.595          46.52         -12.11          2.715          169.0          75.62          45.88          87.95          145.9
    0.2811               -18.6          20.55          8.631          46.51         -12.13          2.702          168.8          75.52          45.74          87.99          145.9
    0.2908              -18.66          20.58          8.672          46.49         -12.14          2.687          168.7           75.4          45.58          88.04          145.9
    0.3005              -18.73          20.61          8.719          46.47         -12.16          2.669          168.4          75.27          45.39          88.09          145.9
    0.3102              -18.81          20.64          8.773          46.45         -12.18          2.649          168.2          75.11          45.18          88.16          145.9
    0.3199               -18.9          20.68          8.836          46.43          -12.2          2.626          167.9          74.93          44.93          88.23          146.0
    0.3296              -19.01          20.73           8.91           46.4         -12.22          2.599          167.6          74.72          44.64          88.32          146.0
    0.3393              -19.13          20.78          8.997          46.37         -12.25          2.567          167.1          74.47           44.3          88.42          146.0
     0.349              -19.28          20.85            9.1          46.33         -12.29          2.529          166.7          74.18           43.9          88.54          146.0
    0.3587              -19.46          20.92          9.223          46.28         -12.33          2.483          166.1          73.83          43.41          88.68          146.1
    0.3684              -19.67          21.02          9.373          46.23         -12.39          2.428          165.4           73.4          42.83          88.86          146.1
    0.3781              -19.93          21.13          9.556          46.16         -12.45          2.361          164.5          72.87          42.11          89.07          146.1
    0.3878              -20.26          21.27          9.782          46.08         -12.53          2.277          163.5          72.23          41.22          89.33          146.2
    0.3975              -20.66          21.45          10.06          45.97         -12.63          2.174          162.2          71.43          40.12          89.66          146.3
    0.4072              -21.17          21.67          10.42          45.84         -12.75          2.043          160.5          70.41          38.73          90.08          146.4
    0.4169              -21.82          21.95          10.87          45.67         -12.91          1.877          158.4          69.12          36.96           90.6          146.5
    0.4266              -22.65          22.31          11.44          45.45         -13.11          1.664          155.8          67.48           34.7          91.28          146.6
    0.4363              -23.71          22.77          12.18          45.18         -13.37          1.391          152.3          65.36           31.8          92.14          146.8
     0.446              -25.07          23.36          13.13          44.82          -13.7          1.042          147.9          62.66          28.09          93.25          147.0
    0.4556              -26.78           24.1          14.32          44.38         -14.11         0.6035          142.4          59.26          23.43          94.64          147.3
    0.4653              -28.86          25.01          15.77          43.84         -14.61        0.06912          135.6          55.12          17.74          96.33          147.7
     0.475              -31.27          26.05          17.45          43.21          -15.2        -0.5503          127.8          50.32          11.16          98.29          148.1
    0.4847              -33.89          27.19          19.26          42.53         -15.83         -1.221          119.4          45.12          4.024          100.4          148.6
    0.4944               -36.5          28.32          21.08          41.85         -16.47         -1.892          110.9          39.92         -3.108          102.5          149.0
    0.5041              -38.91          29.37          22.76          41.22         -17.05         -2.511          103.1          35.12         -9.694          104.5          149.5
    0.5138              -40.99          30.27          24.21          40.68         -17.56         -3.046          96.36          30.98         -15.38          106.2          149.8
    0.5235               -42.7          31.02           25.4          40.23         -17.97         -3.484          90.83          27.58         -20.04          107.6          150.1
    0.5332              -44.06          31.61          26.34          39.88          -18.3         -3.833          86.43          24.88         -23.75          108.7          150.4
    0.5429              -45.13          32.07          27.08           39.6         -18.56         -4.106          82.99          22.76         -26.65          109.6          150.6
    0.5526              -45.95          32.43          27.66          39.39         -18.76         -4.319           80.3          21.11         -28.91          110.2          150.7
    0.5623               -46.6          32.71          28.11          39.22         -18.92         -4.485          78.21          19.83         -30.68          110.8          150.8
     0.572              -47.11          32.93          28.46          39.09         -19.04         -4.616          76.56          18.81         -32.07          111.2          150.9
